<svg width="64" height="16" viewBox="0 0 64 16" fill="none" xmlns="http://www.w3.org/2000/svg">
<rect width="64" height="16" fill="#E5E5E5"/>
<g id="1937" clip-path="url(#clip0_0_1)">
<rect width="1920" height="1080" transform="translate(-582 -433)" fill="white"/>
<rect id="Rectangle 2" x="-582" y="-433" width="2400" height="1080" fill="#131313"/>
<rect id="Rectangle 76" x="-257" y="-141" width="408" height="204" fill="#FB1B3D"/>
<g id="Group 25">
<circle id="Ellipse 15" cx="34.8402" cy="-15.524" r="49.8749" fill="white"/>
</g>
<path id="Arrow 5" d="M63.7071 8.70711C64.0976 8.31658 64.0976 7.68342 63.7071 7.29289L57.3431 0.928932C56.9526 0.538408 56.3195 0.538408 55.9289 0.928932C55.5384 1.31946 55.5384 1.95262 55.9289 2.34315L61.5858 8L55.9289 13.6569C55.5384 14.0474 55.5384 14.6805 55.9289 15.0711C56.3195 15.4616 56.9526 15.4616 57.3431 15.0711L63.7071 8.70711ZM0 9H63V7H0V9Z" fill="black"/>
</g>
<defs>
<clipPath id="clip0_0_1">
<rect width="1920" height="1080" fill="white" transform="translate(-582 -433)"/>
</clipPath>
</defs>
</svg>
